<?xml version="1.0" encoding="UTF-8" standalone="no"?><svg xmlns="http://www.w3.org/2000/svg" xmlns:xlink="http://www.w3.org/1999/xlink" contentStyleType="text/css" height="600px" preserveAspectRatio="none" style="width:891px;height:600px;background:#FFFFFF;" version="1.1" viewBox="0 0 891 600" width="891px" zoomAndPan="magnify"><defs/><g><rect fill="none" height="26.2969" id="_title" style="stroke:none;stroke-width:1.0;" width="256" x="310.5" y="5"/><text fill="#000000" font-family="sans-serif" font-size="14" font-weight="bold" lengthAdjust="spacing" textLength="246" x="315.5" y="22.9951">Flyweight Pattern UML Diagram</text><!--MD5=[dd00abb58b1cd42fa721d95bcfb07a7d]
cluster mainWork--><g id="cluster_mainWork"><path d="M382.5,43.2969 L461.5,43.2969 A3.75,3.75 0 0 1 464,45.7969 L471,65.5938 L603.5,65.5938 A2.5,2.5 0 0 1 606,68.0938 L606,155.7969 A2.5,2.5 0 0 1 603.5,158.2969 L382.5,158.2969 A2.5,2.5 0 0 1 380,155.7969 L380,45.7969 A2.5,2.5 0 0 1 382.5,43.2969 " fill="none" style="stroke:#000000;stroke-width:1.5;"/><line style="stroke:#000000;stroke-width:1.5;" x1="380" x2="471" y1="65.5938" y2="65.5938"/><text fill="#000000" font-family="sans-serif" font-size="14" font-weight="bold" lengthAdjust="spacing" textLength="78" x="384" y="58.292">mainWork</text></g><!--MD5=[389b8c9c904a7e2875f41999a1c34e94]
cluster special--><g id="cluster_special"><path d="M8.5,207.2969 L64.5,207.2969 A3.75,3.75 0 0 1 67,209.7969 L74,229.5938 L379.5,229.5938 A2.5,2.5 0 0 1 382,232.0938 L382,590.7969 A2.5,2.5 0 0 1 379.5,593.2969 L8.5,593.2969 A2.5,2.5 0 0 1 6,590.7969 L6,209.7969 A2.5,2.5 0 0 1 8.5,207.2969 " fill="none" style="stroke:#000000;stroke-width:1.5;"/><line style="stroke:#000000;stroke-width:1.5;" x1="6" x2="74" y1="229.5938" y2="229.5938"/><text fill="#000000" font-family="sans-serif" font-size="14" font-weight="bold" lengthAdjust="spacing" textLength="55" x="10" y="222.292">special</text></g><!--MD5=[22238981d4678d24a4b690f00fa36180]
cluster factory--><g id="cluster_factory"><path d="M408.5,231.2969 L465.5,231.2969 A3.75,3.75 0 0 1 468,233.7969 L475,253.5938 L881.5,253.5938 A2.5,2.5 0 0 1 884,256.0938 L884,360.7969 A2.5,2.5 0 0 1 881.5,363.2969 L408.5,363.2969 A2.5,2.5 0 0 1 406,360.7969 L406,233.7969 A2.5,2.5 0 0 1 408.5,231.2969 " fill="none" style="stroke:#000000;stroke-width:1.5;"/><line style="stroke:#000000;stroke-width:1.5;" x1="406" x2="475" y1="253.5938" y2="253.5938"/><text fill="#000000" font-family="sans-serif" font-size="14" font-weight="bold" lengthAdjust="spacing" textLength="56" x="410" y="246.292">factory</text></g><!--MD5=[b24ed8d4ae84bae9290d9aab401637c7]
class Manager--><g id="elem_Manager"><rect codeLine="4" fill="#F1F1F1" height="64.2969" id="Manager" rx="2.5" ry="2.5" style="stroke:#181818;stroke-width:0.5;" width="194" x="396" y="78.2969"/><ellipse cx="458.75" cy="94.2969" fill="#ADD1B2" rx="11" ry="11" style="stroke:#181818;stroke-width:1.0;"/><path d="M461.7188,99.9375 Q461.1406,100.2344 460.5,100.375 Q459.8594,100.5313 459.1563,100.5313 Q456.6563,100.5313 455.3281,98.8906 Q454.0156,97.2344 454.0156,94.1094 Q454.0156,90.9844 455.3281,89.3281 Q456.6563,87.6719 459.1563,87.6719 Q459.8594,87.6719 460.5,87.8281 Q461.1563,87.9844 461.7188,88.2813 L461.7188,91 Q461.0938,90.4219 460.5,90.1563 Q459.9063,89.875 459.2813,89.875 Q457.9375,89.875 457.25,90.9531 Q456.5625,92.0156 456.5625,94.1094 Q456.5625,96.2031 457.25,97.2813 Q457.9375,98.3438 459.2813,98.3438 Q459.9063,98.3438 460.5,98.0781 Q461.0938,97.7969 461.7188,97.2188 L461.7188,99.9375 Z " fill="#000000"/><text fill="#000000" font-family="sans-serif" font-size="14" lengthAdjust="spacing" textLength="60" x="479.25" y="99.1436">Manager</text><line style="stroke:#181818;stroke-width:0.5;" x1="397" x2="589" y1="110.2969" y2="110.2969"/><line style="stroke:#181818;stroke-width:0.5;" x1="397" x2="589" y1="118.2969" y2="118.2969"/><ellipse cx="407" cy="131.9453" fill="#84BE84" rx="3" ry="3" style="stroke:#038048;stroke-width:1.0;"/><text fill="#000000" font-family="sans-serif" font-size="14" lengthAdjust="spacing" textLength="168" x="416" y="135.292">main(String[] args) : void</text></g><!--MD5=[bb7f1c801adcc1c297b2d9190618259c]
class Tree--><g id="elem_Tree"><rect codeLine="10" fill="#F1F1F1" height="129.4844" id="Tree" rx="2.5" ry="2.5" style="stroke:#181818;stroke-width:0.5;" width="272" x="85" y="242.2969"/><ellipse cx="200.75" cy="258.2969" fill="#ADD1B2" rx="11" ry="11" style="stroke:#181818;stroke-width:1.0;"/><path d="M203.7188,263.9375 Q203.1406,264.2344 202.5,264.375 Q201.8594,264.5313 201.1563,264.5313 Q198.6563,264.5313 197.3281,262.8906 Q196.0156,261.2344 196.0156,258.1094 Q196.0156,254.9844 197.3281,253.3281 Q198.6563,251.6719 201.1563,251.6719 Q201.8594,251.6719 202.5,251.8281 Q203.1563,251.9844 203.7188,252.2813 L203.7188,255 Q203.0938,254.4219 202.5,254.1563 Q201.9063,253.875 201.2813,253.875 Q199.9375,253.875 199.25,254.9531 Q198.5625,256.0156 198.5625,258.1094 Q198.5625,260.2031 199.25,261.2813 Q199.9375,262.3438 201.2813,262.3438 Q201.9063,262.3438 202.5,262.0781 Q203.0938,261.7969 203.7188,261.2188 L203.7188,263.9375 Z " fill="#000000"/><text fill="#000000" font-family="sans-serif" font-size="14" lengthAdjust="spacing" textLength="32" x="221.25" y="263.1436">Tree</text><line style="stroke:#181818;stroke-width:0.5;" x1="86" x2="356" y1="274.2969" y2="274.2969"/><rect fill="none" height="6" style="stroke:#C82930;stroke-width:1.0;" width="6" x="93" y="284.9453"/><text fill="#000000" font-family="sans-serif" font-size="14" lengthAdjust="spacing" textLength="61" x="105" y="291.292">posX: int</text><rect fill="none" height="6" style="stroke:#C82930;stroke-width:1.0;" width="6" x="93" y="301.2422"/><text fill="#000000" font-family="sans-serif" font-size="14" lengthAdjust="spacing" textLength="61" x="105" y="307.5889">posY: int</text><rect fill="none" height="6" style="stroke:#C82930;stroke-width:1.0;" width="6" x="93" y="317.5391"/><text fill="#000000" font-family="sans-serif" font-size="14" lengthAdjust="spacing" textLength="137" x="105" y="323.8857">treeType: TreeType</text><line style="stroke:#181818;stroke-width:0.5;" x1="86" x2="356" y1="331.1875" y2="331.1875"/><ellipse cx="96" cy="344.8359" fill="#84BE84" rx="3" ry="3" style="stroke:#038048;stroke-width:1.0;"/><text fill="#000000" font-family="sans-serif" font-size="14" lengthAdjust="spacing" textLength="246" x="105" y="348.1826">Tree(int x, int y, TreeType treeType)</text><ellipse cx="96" cy="361.1328" fill="#84BE84" rx="3" ry="3" style="stroke:#038048;stroke-width:1.0;"/><text fill="#000000" font-family="sans-serif" font-size="14" lengthAdjust="spacing" textLength="84" x="105" y="364.4795">draw() : void</text></g><!--MD5=[5dbc9d42d6971f2d4c5ed8ec11db7338]
class TreeType--><g id="elem_TreeType"><rect codeLine="18" fill="#F1F1F1" height="129.4844" id="TreeType" rx="2.5" ry="2.5" style="stroke:#181818;stroke-width:0.5;" width="344" x="22" y="448.2969"/><ellipse cx="156.75" cy="464.2969" fill="#ADD1B2" rx="11" ry="11" style="stroke:#181818;stroke-width:1.0;"/><path d="M159.7188,469.9375 Q159.1406,470.2344 158.5,470.375 Q157.8594,470.5313 157.1563,470.5313 Q154.6563,470.5313 153.3281,468.8906 Q152.0156,467.2344 152.0156,464.1094 Q152.0156,460.9844 153.3281,459.3281 Q154.6563,457.6719 157.1563,457.6719 Q157.8594,457.6719 158.5,457.8281 Q159.1563,457.9844 159.7188,458.2813 L159.7188,461 Q159.0938,460.4219 158.5,460.1563 Q157.9063,459.875 157.2813,459.875 Q155.9375,459.875 155.25,460.9531 Q154.5625,462.0156 154.5625,464.1094 Q154.5625,466.2031 155.25,467.2813 Q155.9375,468.3438 157.2813,468.3438 Q157.9063,468.3438 158.5,468.0781 Q159.0938,467.7969 159.7188,467.2188 L159.7188,469.9375 Z " fill="#000000"/><text fill="#000000" font-family="sans-serif" font-size="14" lengthAdjust="spacing" textLength="66" x="177.25" y="469.1436">TreeType</text><line style="stroke:#181818;stroke-width:0.5;" x1="23" x2="365" y1="480.2969" y2="480.2969"/><rect fill="none" height="6" style="stroke:#C82930;stroke-width:1.0;" width="6" x="30" y="490.9453"/><text fill="#000000" font-family="sans-serif" font-size="14" lengthAdjust="spacing" textLength="88" x="42" y="497.292">name: String</text><rect fill="none" height="6" style="stroke:#C82930;stroke-width:1.0;" width="6" x="30" y="507.2422"/><text fill="#000000" font-family="sans-serif" font-size="14" lengthAdjust="spacing" textLength="52" x="42" y="513.5889">age: int</text><rect fill="none" height="6" style="stroke:#C82930;stroke-width:1.0;" width="6" x="30" y="523.5391"/><text fill="#000000" font-family="sans-serif" font-size="14" lengthAdjust="spacing" textLength="101" x="42" y="529.8857">length: double</text><line style="stroke:#181818;stroke-width:0.5;" x1="23" x2="365" y1="537.1875" y2="537.1875"/><ellipse cx="33" cy="550.8359" fill="#84BE84" rx="3" ry="3" style="stroke:#038048;stroke-width:1.0;"/><text fill="#000000" font-family="sans-serif" font-size="14" lengthAdjust="spacing" textLength="318" x="42" y="554.1826">TreeType(String name, int age, double length)</text><ellipse cx="33" cy="567.1328" fill="#84BE84" rx="3" ry="3" style="stroke:#038048;stroke-width:1.0;"/><text fill="#000000" font-family="sans-serif" font-size="14" lengthAdjust="spacing" textLength="204" x="42" y="570.4795">draw(int posX, int posY) : void</text></g><!--MD5=[1cd96669abe560cf096191c6b5f2ac44]
class TreeFactory--><g id="elem_TreeFactory"><rect codeLine="28" fill="#F1F1F1" height="80.5938" id="TreeFactory" rx="2.5" ry="2.5" style="stroke:#181818;stroke-width:0.5;" width="446" x="422" y="266.2969"/><ellipse cx="599.75" cy="282.2969" fill="#ADD1B2" rx="11" ry="11" style="stroke:#181818;stroke-width:1.0;"/><path d="M602.7188,287.9375 Q602.1406,288.2344 601.5,288.375 Q600.8594,288.5313 600.1563,288.5313 Q597.6563,288.5313 596.3281,286.8906 Q595.0156,285.2344 595.0156,282.1094 Q595.0156,278.9844 596.3281,277.3281 Q597.6563,275.6719 600.1563,275.6719 Q600.8594,275.6719 601.5,275.8281 Q602.1563,275.9844 602.7188,276.2813 L602.7188,279 Q602.0938,278.4219 601.5,278.1563 Q600.9063,277.875 600.2813,277.875 Q598.9375,277.875 598.25,278.9531 Q597.5625,280.0156 597.5625,282.1094 Q597.5625,284.2031 598.25,285.2813 Q598.9375,286.3438 600.2813,286.3438 Q600.9063,286.3438 601.5,286.0781 Q602.0938,285.7969 602.7188,285.2188 L602.7188,287.9375 Z " fill="#000000"/><text fill="#000000" font-family="sans-serif" font-size="14" lengthAdjust="spacing" textLength="82" x="620.25" y="287.1436">TreeFactory</text><line style="stroke:#181818;stroke-width:0.5;" x1="423" x2="867" y1="298.2969" y2="298.2969"/><rect fill="none" height="6" style="stroke:#C82930;stroke-width:1.0;" width="6" x="430" y="308.9453"/><text fill="#000000" font-family="sans-serif" font-size="14" lengthAdjust="spacing" textLength="238" x="442" y="315.292">treeType: Map&lt;String, TreeType&gt;</text><line style="stroke:#181818;stroke-width:0.5;" x1="423" x2="867" y1="322.5938" y2="322.5938"/><ellipse cx="433" cy="336.2422" fill="#84BE84" rx="3" ry="3" style="stroke:#038048;stroke-width:1.0;"/><text fill="#000000" font-family="sans-serif" font-size="14" lengthAdjust="spacing" textLength="420" x="442" y="339.5889">getTreeType(String name, int age, double length) : TreeType</text></g><!--MD5=[83190ba222896b6c525e5b6f664c7b6d]
link Manager to Tree--><g id="link_Manager_Tree"><path codeLine="34" d="M449.6,142.3269 C413.2,168.3569 359.95,206.4369 314,239.2969 " fill="none" id="Manager-to-Tree" style="stroke:#181818;stroke-width:1.0;"/><polygon fill="#181818" points="309.86,242.2569,319.5033,240.255,313.9209,239.3399,314.8361,233.7575,309.86,242.2569" style="stroke:#181818;stroke-width:1.0;"/><text fill="#000000" font-family="sans-serif" font-size="13" lengthAdjust="spacing" textLength="30" x="398" y="187.3638">uses</text></g><!--MD5=[1a840180bedc7f8f0e972f2418249f52]
link Manager to TreeFactory--><g id="link_Manager_TreeFactory"><path codeLine="35" d="M517.42,142.5469 C542.66,174.8469 582.27,225.5369 610.66,261.8569 " fill="none" id="Manager-to-TreeFactory" style="stroke:#181818;stroke-width:1.0;"/><polygon fill="#181818" points="614.07,266.2169,611.6732,256.6641,610.9885,262.2793,605.3732,261.5946,614.07,266.2169" style="stroke:#181818;stroke-width:1.0;"/><text fill="#000000" font-family="sans-serif" font-size="13" lengthAdjust="spacing" textLength="30" x="556" y="187.3638">uses</text></g><!--MD5=[1da94adf02d96227d34a2a6686eaec78]
link Tree to TreeType--><g id="link_Tree_TreeType"><path codeLine="36" d="M212.57,371.5069 C209.56,394.2169 206.16,419.8969 203.1,443.0169 " fill="none" id="Tree-to-TreeType" style="stroke:#181818;stroke-width:1.0;"/><polygon fill="#181818" points="202.41,448.2169,207.558,439.8206,203.0671,443.2602,199.6274,438.7693,202.41,448.2169" style="stroke:#181818;stroke-width:1.0;"/><text fill="#000000" font-family="sans-serif" font-size="13" lengthAdjust="spacing" textLength="78" x="209" y="414.3638">composition</text></g><!--MD5=[22a66adb741894b0156b24c91133d76f]
link TreeFactory to TreeType--><g id="link_TreeFactory_TreeType"><path codeLine="37" d="M557.51,347.3769 C495.6,375.3769 411.13,413.5769 339.21,446.1169 " fill="none" id="TreeFactory-to-TreeType" style="stroke:#181818;stroke-width:1.0;"/><polygon fill="#181818" points="334.49,448.2469,344.3387,448.1897,339.0472,446.1897,341.0472,440.8982,334.49,448.2469" style="stroke:#181818;stroke-width:1.0;"/><text fill="#000000" font-family="sans-serif" font-size="13" lengthAdjust="spacing" textLength="48" x="434" y="414.3638">creates</text></g><!--MD5=[aca7a461c0b3ca70401d3a6c5dddea9d]
@startuml
title Flyweight Pattern UML Diagram

package "mainWork" {
    class Manager {
        + main(String[] args) : void
    }
}

package "special" {
    class Tree {
        - posX: int
        - posY: int
        - treeType: TreeType
        + Tree(int x, int y, TreeType treeType)
        + draw() : void
    }

    class TreeType {
        - name: String
        - age: int
        - length: double
        + TreeType(String name, int age, double length)
        + draw(int posX, int posY) : void
    }
}

package "factory" {
    class TreeFactory {
        - treeType: Map<String, TreeType>
        + getTreeType(String name, int age, double length) : TreeType
    }
}

Manager - -> Tree : "uses"
Manager - -> TreeFactory : "uses"
Tree - -> TreeType : "composition"
TreeFactory - -> TreeType : "creates"
@enduml

PlantUML version 1.2022.7(Mon Aug 22 17:01:30 UTC 2022)
(GPL source distribution)
Java Runtime: OpenJDK Runtime Environment
JVM: OpenJDK 64-Bit Server VM
Default Encoding: UTF-8
Language: en
Country: null
--></g></svg>